<?xml version="1.0" encoding="utf-8"?><svg version="1.1" id="Layer_1" xmlns="http://www.w3.org/2000/svg" xmlns:xlink="http://www.w3.org/1999/xlink" x="0px" y="0px" viewBox="0 0 122.88 122.88" style="enable-background:new 0 0 122.88 122.88" xml:space="preserve"><style type="text/css">.st0{fill:#1A73E8;} .st1{fill:#185ABC;} .st2{fill:#FFFFFF;} .st3{fill:#8AB4F8;}</style><g><path class="st0" d="M122.88,61.41C122.88,27.49,95.39,0,61.47,0S0.06,27.49,0.06,61.41s27.49,61.41,61.41,61.41 S122.88,95.32,122.88,61.41L122.88,61.41z"/><path class="st1" d="M83.82,87.93H41.97c-5.95,0-11.14-4.49-11.14-10.45v-0.06v3.48c0,5.95,5.19,11.14,11.14,11.14h41.85 c6.01,0,11.14-5.25,11.14-11.14v-3.48C94.96,83.38,89.77,87.93,83.82,87.93L83.82,87.93L83.82,87.93z M30.77,57.93v-4.75 l-7.79-12.85c-0.44-0.7-0.63-1.33-0.57-1.96v5.44c0,0.51,0.19,1.01,0.51,1.58L30.77,57.93L30.77,57.93z"/><path class="st2" d="M83.82,36.28H25.2c-2.34,0-3.67,2.03-2.09,4.18l7.66,13.29v23.74c0,6.08,4.43,11.14,10.45,11.14h42.54 c6.01,0,11.14-5.13,11.14-11.14V47.48C94.96,41.4,89.83,36.28,83.82,36.28L83.82,36.28z"/><path class="st3" d="M83.12,53.05H42.67c-1.77,0-3.48-1.08-3.48-2.79c0-1.71,1.71-2.79,3.48-2.79h40.45c1.77,0,3.48,1.08,3.48,2.79 C86.6,51.98,84.9,53.05,83.12,53.05L83.12,53.05L83.12,53.05z M83.12,64.19H42.67c-1.77,0-3.48-1.08-3.48-2.79 c0-1.71,1.71-2.79,3.48-2.79h40.45c1.77,0,3.48,1.08,3.48,2.79C86.6,63.12,84.9,64.19,83.12,64.19L83.12,64.19L83.12,64.19z M71.92,75.4H42.61c-1.77,0-3.48-1.08-3.48-2.79c0-1.71,1.71-2.79,3.48-2.79h29.31c1.77,0,3.48,1.08,3.48,2.79 C75.4,74.32,73.69,75.4,71.92,75.4L71.92,75.4z"/><path class="st1" d="M122.88,61.09c-0.13,26.91-17.66,49.76-41.85,57.86c-6.14,2.09-12.72,3.17-19.56,3.17 c-33.81,0-61.22-27.29-61.41-61.03v0.38c0,33.93,27.48,61.41,61.41,61.41c6.84,0,13.42-1.14,19.56-3.17 c24.31-8.17,41.85-31.15,41.85-58.24V61.09L122.88,61.09z"/><path class="st3" d="M80.97,3.17C74.83,1.08,68.25,0,61.41,0C27.48,0,0,27.48,0,61.41v0.38C0.19,28.04,27.6,0.76,61.41,0.76 c6.84,0,13.42,1.14,19.56,3.17c24.25,8.1,41.72,30.96,41.85,57.86v-0.38C122.88,34.31,105.34,11.33,80.97,3.17L80.97,3.17z"/></g></svg>